<?xml version="1.0" encoding="utf-8" standalone="yes"?>
<!DOCTYPE svg PUBLIC "-//W3C//DTD SVG 1.1//EN" "http://www.w3.org/Graphics/SVG/1.1/DTD/svg11.dtd">
<svg width="457" height="336" viewBox="0 0 457 336" style="fill:none;stroke:none;fill-rule:evenodd;clip-rule:evenodd;stroke-linecap:round;stroke-linejoin:round;stroke-miterlimit:1.5;" version="1.1" xmlns="http://www.w3.org/2000/svg" xmlns:xlink="http://www.w3.org/1999/xlink"><style id="fontImports">@import url("https://fonts.googleapis.com/css2?family=Roboto:wght@400;700&amp;display=block");</style><rect id="" x="0" y="0" width="457" height="336" style="fill: #ffffff;"></rect><g id="items" style="isolation: isolate"><g id="blend" style="mix-blend-mode:multiply"><g id="g-root--1.line_sy_hu0j941ghpatd-fill" data-item-order="-82939" data-item-id="-1.line_sy_hu0j941ghpatd" data-item-class="ScenePart Part Stroke ColorStrokeBlack" data-item-index="-1" data-renderer-id="0" transform="translate(366, 157.99609375)"></g><g id="g-root--1.vector_sy_hu0j941ghpate-fill" data-item-order="-82937" data-item-id="-1.vector_sy_hu0j941ghpate" data-item-class="ScenePart Part Stroke ColorStrokeBlack" data-item-index="-1" data-renderer-id="0" transform="translate(3, 157.99609375)"></g><g id="g-root-4.cr-big_cr_1lt0jg81ghpbes-fill" data-item-order="-82936" data-item-id="4.cr-big_cr_1lt0jg81ghpbes" data-item-class="Shape Stroke Fill ScenePart Part Indexed ColorStrokeBlack" data-item-index="4" data-renderer-id="0" transform="translate(327, 181.998046875)"><g id="4.cr-big_cr_1lt0jg81ghpbes-fill" stroke="none" fill="#93c131"><g><path d="M 10 46C 10 65.882251 26.117749 82 46 82C 65.882251 82 82 65.882251 82 46C 82 26.117749 65.882251 10 46 10C 26.117749 10 10 26.117749 10 46"></path></g></g></g><g id="g-root-4.cu-smallCircle_sy_1cxdj7c1ghpc7h-fill" data-item-order="-82933" data-item-id="4.cu-smallCircle_sy_1cxdj7c1ghpc7h" data-item-class="ScenePart Part Indexed Stroke ColorStrokeBlack" data-item-index="4" data-renderer-id="0" transform="translate(360, 155.001953125)"></g><g id="g-root-4.ln_ln_zmjhx41ghpamm-fill" data-item-order="-82931" data-item-id="4.ln_ln_zmjhx41ghpamm" data-item-class="Curve Stroke ScenePart Part Indexed ColorStrokeBlack" data-item-index="4" data-renderer-id="0" transform="translate(363, 161.001953125)"></g><g id="g-root-3.cr-big_cr_1q8u1ko1ghpamh-fill" data-item-order="-82930" data-item-id="3.cr-big_cr_1q8u1ko1ghpamh" data-item-class="Shape Stroke Fill ScenePart Part Indexed ColorStrokeBlack" data-item-index="3" data-renderer-id="0" transform="translate(231, 62)"><g id="3.cr-big_cr_1q8u1ko1ghpamh-fill" stroke="none" fill="#3bc482"><g><path d="M 10 46C 10 65.882251 26.117749 82 46 82C 65.882251 82 82 65.882251 82 46C 82 26.117749 65.882251 10 46 10C 26.117749 10 10 26.117749 10 46"></path></g></g></g><g id="g-root-3.cu-smallCircle_sy_1q8u1ko1ghpami-fill" data-item-order="-82927" data-item-id="3.cu-smallCircle_sy_1q8u1ko1ghpami" data-item-class="ScenePart Part Indexed Stroke ColorStrokeBlack" data-item-index="3" data-renderer-id="0" transform="translate(264, 154.99609375)"></g><g id="g-root-3.ln_ln_1lt0jg81ghpber-fill" data-item-order="-82925" data-item-id="3.ln_ln_1lt0jg81ghpber" data-item-class="Curve Stroke ScenePart Part Indexed ColorStrokeBlack" data-item-index="3" data-renderer-id="0" transform="translate(267, 134)"></g><g id="g-root-2.cr-big_cr_4ik0vs1ghpcee-fill" data-item-order="-82924" data-item-id="2.cr-big_cr_4ik0vs1ghpcee" data-item-class="Shape Stroke Fill ScenePart Part Indexed ColorStrokeBlack" data-item-index="2" data-renderer-id="0" transform="translate(135, 182)"><g id="2.cr-big_cr_4ik0vs1ghpcee-fill" stroke="none" fill="#17b0e3"><g><path d="M 10 46C 10 65.882251 26.117749 82 46 82C 65.882251 82 82 65.882251 82 46C 82 26.117749 65.882251 10 46 10C 26.117749 10 10 26.117749 10 46"></path></g></g></g><g id="g-root-2.cu-smallCircle_sy_1uo12m01ghpczz-fill" data-item-order="-82921" data-item-id="2.cu-smallCircle_sy_1uo12m01ghpczz" data-item-class="ScenePart Part Indexed Stroke ColorStrokeBlack" data-item-index="2" data-renderer-id="0" transform="translate(168, 155.001953125)"></g><g id="g-root-2.ln_ln_3czug1ghpa0w-fill" data-item-order="-82919" data-item-id="2.ln_ln_3czug1ghpa0w" data-item-class="Curve Stroke ScenePart Part Indexed ColorStrokeBlack" data-item-index="2" data-renderer-id="0" transform="translate(171, 161.001953125)"></g><g id="g-root-1.cr-big_cr_hu0j941ghpatf-fill" data-item-order="-82918" data-item-id="1.cr-big_cr_hu0j941ghpatf" data-item-class="Shape Stroke Fill ScenePart Part Indexed Indexed_1 ColorStrokeBlack" data-item-index="1" data-renderer-id="0" transform="translate(39, 62)"><g id="1.cr-big_cr_hu0j941ghpatf-fill" stroke="none" fill="#4682e3"><g><path d="M 10 46C 10 65.882251 26.117749 82 46 82C 65.882251 82 82 65.882251 82 46C 82 26.117749 65.882251 10 46 10C 26.117749 10 10 26.117749 10 46"></path></g></g></g><g id="g-root-1.cu-smallCircle_sy_8ydj081ghpbm4-fill" data-item-order="-82915" data-item-id="1.cu-smallCircle_sy_8ydj081ghpbm4" data-item-class="ScenePart Part Indexed Indexed_1 Stroke ColorStrokeBlack" data-item-index="1" data-renderer-id="0" transform="translate(72, 154.99609375)"></g><g id="g-root-1.ln_ln_8ydj081ghpbm5-fill" data-item-order="-82913" data-item-id="1.ln_ln_8ydj081ghpbm5" data-item-class="Curve Stroke ScenePart Part Indexed Indexed_1 ColorStrokeBlack" data-item-index="1" data-renderer-id="0" transform="translate(75, 134)"></g><g id="g-root-tx_iawriter_1luvypk1ghpaf6-fill" data-item-order="0" data-item-id="tx_iawriter_1luvypk1ghpaf6" data-item-class="Label Stroke SceneTarget Indexed Indexed_1 ColorStrokeBlack" data-item-index="1" data-renderer-id="0" transform="translate(3, 2)"><g id="tx_iawriter_1luvypk1ghpaf6-fill" stroke="none" fill="#666666"><g><text style="font: 20px Roboto, sans-serif; white-space: pre;"><tspan x="12.45" y="33.5" dominant-baseline="ideographic">MarkEditで記事</tspan><tspan x="52" y="57.5" dominant-baseline="ideographic">を編集</tspan></text></g></g></g><g id="g-root-tx_vscode_dg2ge01ghpam8-fill" data-item-order="0" data-item-id="tx_vscode_dg2ge01ghpam8" data-item-class="Label Stroke SceneTarget Indexed ColorStrokeBlack" data-item-index="3" data-renderer-id="0" transform="translate(195, 2)"><g id="tx_vscode_dg2ge01ghpam8-fill" stroke="none" fill="#666666"><g><text style="font: 20px Roboto, sans-serif; white-space: pre;"><tspan x="16.55" y="33.5" dominant-baseline="ideographic">VSCodeで記事</tspan><tspan x="42" y="57.5" dominant-baseline="ideographic">を仕上げ</tspan></text></g></g></g><g id="g-root-edit_1hbbp881gh5nnn-fill" data-item-order="0" data-item-id="edit_1hbbp881gh5nnn" data-item-class="Icon Stroke SceneTarget Indexed Indexed_1 InsideFill InsideColorFill ColorStrokeBlack" data-item-index="1" data-renderer-id="0" transform="translate(51, 74)"></g><g id="g-root-brow_1lse5iw1ghgwln-fill" data-item-order="0" data-item-id="brow_1lse5iw1ghgwln" data-item-class="Icon Stroke SceneTarget Indexed InsideFill InsideColorFill ColorStrokeBlack" data-item-index="3" data-renderer-id="0" transform="translate(243, 74)"></g><g id="g-root-zip_v4unp41gh5mvg-fill" data-item-order="0" data-item-id="zip_v4unp41gh5mvg" data-item-class="Icon Stroke SceneTarget Indexed InsideFill InsideColorFill ColorStrokeBlack" data-item-index="2" data-renderer-id="0" transform="translate(147, 194)"></g><g id="g-root-acco_v6ns1gh5one-fill" data-item-order="0" data-item-id="acco_v6ns1gh5one" data-item-class="Icon Stroke SceneTarget Indexed InsideFill InsideColorFill ColorStrokeBlack" data-item-index="4" data-renderer-id="0" transform="translate(339, 194)"></g><g id="g-root-tx_markedit_4ly0o1ghpc75-fill" data-item-order="0" data-item-id="tx_markedit_4ly0o1ghpc75" data-item-class="Label Stroke SceneTarget Indexed ColorStrokeBlack" data-item-index="2" data-renderer-id="0" transform="translate(99, 266)"><g id="tx_markedit_4ly0o1ghpc75-fill" stroke="none" fill="#666666"><g><text style="font: 20px Roboto, sans-serif; white-space: pre;"><tspan x="14.04" y="33.5" dominant-baseline="ideographic">iA Writerで記事</tspan><tspan x="52" y="57.5" dominant-baseline="ideographic">を管理</tspan></text></g></g></g><g id="g-root-tx_zenn_mb2zjs1ghpc7j-fill" data-item-order="0" data-item-id="tx_zenn_mb2zjs1ghpc7j" data-item-class="Label Stroke SceneTarget Indexed ColorStrokeBlack" data-item-index="4" data-renderer-id="0" transform="translate(297, 266)"><g id="tx_zenn_mb2zjs1ghpc7j-fill" stroke="none" fill="#666666"><g><text style="font: 20px Roboto, sans-serif; white-space: pre;"><tspan x="13.78" y="33.5" dominant-baseline="ideographic">Zennに記事を</tspan><tspan x="56" y="57.5" dominant-baseline="ideographic">投稿</tspan></text></g></g></g><g id="g-root--1.line_sy_hu0j941ghpatd-stroke" data-item-order="-82939" data-item-id="-1.line_sy_hu0j941ghpatd" data-item-class="ScenePart Part Stroke ColorStrokeBlack" data-item-index="-1" data-renderer-id="0" transform="translate(366, 157.99609375)"><g id="-1.line_sy_hu0j941ghpatd-stroke" fill="none" stroke-linecap="round" stroke-linejoin="round" stroke-miterlimit="4" stroke="#666666" stroke-width="2"><g><path d="M 77 10.003906L 10 10.003906"></path><path d="M 71 16.503906L 77.5 10.003906L 71 3.503906" stroke-dasharray="none"></path></g></g></g><g id="g-root--1.vector_sy_hu0j941ghpate-stroke" data-item-order="-82937" data-item-id="-1.vector_sy_hu0j941ghpate" data-item-class="ScenePart Part Stroke ColorStrokeBlack" data-item-index="-1" data-renderer-id="0" transform="translate(3, 157.99609375)"><g id="-1.vector_sy_hu0j941ghpate-stroke" fill="none" stroke-linecap="round" stroke-linejoin="round" stroke-miterlimit="4" stroke="#666666" stroke-width="2"><g><path d="M 78.9976 10L 10 10M 174.9976 10L 84.9976 10M 271 10L 181 10M 367 10L 277 10"></path></g></g></g><g id="g-root-4.cr-big_cr_1lt0jg81ghpbes-stroke" data-item-order="-82936" data-item-id="4.cr-big_cr_1lt0jg81ghpbes" data-item-class="Shape Stroke Fill ScenePart Part Indexed ColorStrokeBlack" data-item-index="4" data-renderer-id="0" transform="translate(327, 181.998046875)"><g id="4.cr-big_cr_1lt0jg81ghpbes-stroke" fill="none" stroke-linecap="round" stroke-linejoin="round" stroke-miterlimit="4" stroke="#2c2c2c" stroke-width="2"><g><path d="M 10 46C 10 65.882251 26.117749 82 46 82C 65.882251 82 82 65.882251 82 46C 82 26.117749 65.882251 10 46 10C 26.117749 10 10 26.117749 10 46"></path></g></g></g><g id="g-root-4.cu-smallCircle_sy_1cxdj7c1ghpc7h-stroke" data-item-order="-82933" data-item-id="4.cu-smallCircle_sy_1cxdj7c1ghpc7h" data-item-class="ScenePart Part Indexed Stroke ColorStrokeBlack" data-item-index="4" data-renderer-id="0" transform="translate(360, 155.001953125)"><g id="4.cu-smallCircle_sy_1cxdj7c1ghpc7h-stroke" fill="none" stroke-linecap="round" stroke-linejoin="round" stroke-miterlimit="4" stroke="#666666" stroke-width="2"><g><path d="M 10 13C 10 11.343109 11.343079 10 13 10C 14.656921 10 16 11.343109 16 13C 16 14.656891 14.656921 16 13 16C 11.343079 16 10 14.656891 10 13Z"></path></g></g></g><g id="g-root-4.ln_ln_zmjhx41ghpamm-stroke" data-item-order="-82931" data-item-id="4.ln_ln_zmjhx41ghpamm" data-item-class="Curve Stroke ScenePart Part Indexed ColorStrokeBlack" data-item-index="4" data-renderer-id="0" transform="translate(363, 161.001953125)"><g id="4.ln_ln_zmjhx41ghpamm-stroke" fill="none" stroke-linecap="round" stroke-linejoin="round" stroke-miterlimit="4" stroke="#666666" stroke-width="2"><g><path d="M 10 31L 10 20.5L 10 10"></path></g></g></g><g id="g-root-3.cr-big_cr_1q8u1ko1ghpamh-stroke" data-item-order="-82930" data-item-id="3.cr-big_cr_1q8u1ko1ghpamh" data-item-class="Shape Stroke Fill ScenePart Part Indexed ColorStrokeBlack" data-item-index="3" data-renderer-id="0" transform="translate(231, 62)"><g id="3.cr-big_cr_1q8u1ko1ghpamh-stroke" fill="none" stroke-linecap="round" stroke-linejoin="round" stroke-miterlimit="4" stroke="#2c2c2c" stroke-width="2"><g><path d="M 10 46C 10 65.882251 26.117749 82 46 82C 65.882251 82 82 65.882251 82 46C 82 26.117749 65.882251 10 46 10C 26.117749 10 10 26.117749 10 46"></path></g></g></g><g id="g-root-3.cu-smallCircle_sy_1q8u1ko1ghpami-stroke" data-item-order="-82927" data-item-id="3.cu-smallCircle_sy_1q8u1ko1ghpami" data-item-class="ScenePart Part Indexed Stroke ColorStrokeBlack" data-item-index="3" data-renderer-id="0" transform="translate(264, 154.99609375)"><g id="3.cu-smallCircle_sy_1q8u1ko1ghpami-stroke" fill="none" stroke-linecap="round" stroke-linejoin="round" stroke-miterlimit="4" stroke="#666666" stroke-width="2"><g><path d="M 16 13C 16 14.6569 14.6569 16 13 16C 11.3431 16 10 14.6569 10 13C 10 11.3431 11.3431 10 13 10C 14.6569 10 16 11.3431 16 13Z"></path></g></g></g><g id="g-root-3.ln_ln_1lt0jg81ghpber-stroke" data-item-order="-82925" data-item-id="3.ln_ln_1lt0jg81ghpber" data-item-class="Curve Stroke ScenePart Part Indexed ColorStrokeBlack" data-item-index="3" data-renderer-id="0" transform="translate(267, 134)"><g id="3.ln_ln_1lt0jg81ghpber-stroke" fill="none" stroke-linecap="round" stroke-linejoin="round" stroke-miterlimit="4" stroke="#666666" stroke-width="2"><g><path d="M 10 10L 10 20.5L 10 31"></path></g></g></g><g id="g-root-2.cr-big_cr_4ik0vs1ghpcee-stroke" data-item-order="-82924" data-item-id="2.cr-big_cr_4ik0vs1ghpcee" data-item-class="Shape Stroke Fill ScenePart Part Indexed ColorStrokeBlack" data-item-index="2" data-renderer-id="0" transform="translate(135, 182)"><g id="2.cr-big_cr_4ik0vs1ghpcee-stroke" fill="none" stroke-linecap="round" stroke-linejoin="round" stroke-miterlimit="4" stroke="#2c2c2c" stroke-width="2"><g><path d="M 10 46C 10 65.882251 26.117749 82 46 82C 65.882251 82 82 65.882251 82 46C 82 26.117749 65.882251 10 46 10C 26.117749 10 10 26.117749 10 46"></path></g></g></g><g id="g-root-2.cu-smallCircle_sy_1uo12m01ghpczz-stroke" data-item-order="-82921" data-item-id="2.cu-smallCircle_sy_1uo12m01ghpczz" data-item-class="ScenePart Part Indexed Stroke ColorStrokeBlack" data-item-index="2" data-renderer-id="0" transform="translate(168, 155.001953125)"><g id="2.cu-smallCircle_sy_1uo12m01ghpczz-stroke" fill="none" stroke-linecap="round" stroke-linejoin="round" stroke-miterlimit="4" stroke="#666666" stroke-width="2"><g><path d="M 10 13C 10 11.343109 11.343109 10 13 10C 14.656891 10 16 11.343109 16 13C 16 14.656891 14.656891 16 13 16C 11.343109 16 10 14.656891 10 13Z"></path></g></g></g><g id="g-root-2.ln_ln_3czug1ghpa0w-stroke" data-item-order="-82919" data-item-id="2.ln_ln_3czug1ghpa0w" data-item-class="Curve Stroke ScenePart Part Indexed ColorStrokeBlack" data-item-index="2" data-renderer-id="0" transform="translate(171, 161.001953125)"><g id="2.ln_ln_3czug1ghpa0w-stroke" fill="none" stroke-linecap="round" stroke-linejoin="round" stroke-miterlimit="4" stroke="#666666" stroke-width="2"><g><path d="M 10 31L 10 20.5L 10 10"></path></g></g></g><g id="g-root-1.cr-big_cr_hu0j941ghpatf-stroke" data-item-order="-82918" data-item-id="1.cr-big_cr_hu0j941ghpatf" data-item-class="Shape Stroke Fill ScenePart Part Indexed Indexed_1 ColorStrokeBlack" data-item-index="1" data-renderer-id="0" transform="translate(39, 62)"><g id="1.cr-big_cr_hu0j941ghpatf-stroke" fill="none" stroke-linecap="round" stroke-linejoin="round" stroke-miterlimit="4" stroke="#2c2c2c" stroke-width="2"><g><path d="M 10 46C 10 65.882251 26.117749 82 46 82C 65.882251 82 82 65.882251 82 46C 82 26.117749 65.882251 10 46 10C 26.117749 10 10 26.117749 10 46"></path></g></g></g><g id="g-root-1.cu-smallCircle_sy_8ydj081ghpbm4-stroke" data-item-order="-82915" data-item-id="1.cu-smallCircle_sy_8ydj081ghpbm4" data-item-class="ScenePart Part Indexed Indexed_1 Stroke ColorStrokeBlack" data-item-index="1" data-renderer-id="0" transform="translate(72, 154.99609375)"><g id="1.cu-smallCircle_sy_8ydj081ghpbm4-stroke" fill="none" stroke-linecap="round" stroke-linejoin="round" stroke-miterlimit="4" stroke="#666666" stroke-width="2"><g><path d="M 16 13C 16 14.6569 14.6569 16 13 16C 11.3431 16 10 14.6569 10 13C 10 11.3431 11.3431 10 13 10C 14.6569 10 16 11.3431 16 13Z"></path></g></g></g><g id="g-root-1.ln_ln_8ydj081ghpbm5-stroke" data-item-order="-82913" data-item-id="1.ln_ln_8ydj081ghpbm5" data-item-class="Curve Stroke ScenePart Part Indexed Indexed_1 ColorStrokeBlack" data-item-index="1" data-renderer-id="0" transform="translate(75, 134)"><g id="1.ln_ln_8ydj081ghpbm5-stroke" fill="none" stroke-linecap="round" stroke-linejoin="round" stroke-miterlimit="4" stroke="#666666" stroke-width="2"><g><path d="M 10 10L 10 20.5L 10 31"></path></g></g></g><g id="g-root-tx_iawriter_1luvypk1ghpaf6-stroke" data-item-order="0" data-item-id="tx_iawriter_1luvypk1ghpaf6" data-item-class="Label Stroke SceneTarget Indexed Indexed_1 ColorStrokeBlack" data-item-index="1" data-renderer-id="0" transform="translate(3, 2)"></g><g id="g-root-tx_vscode_dg2ge01ghpam8-stroke" data-item-order="0" data-item-id="tx_vscode_dg2ge01ghpam8" data-item-class="Label Stroke SceneTarget Indexed ColorStrokeBlack" data-item-index="3" data-renderer-id="0" transform="translate(195, 2)"></g><g id="g-root-edit_1hbbp881gh5nnn-stroke" data-item-order="0" data-item-id="edit_1hbbp881gh5nnn" data-item-class="Icon Stroke SceneTarget Indexed Indexed_1 InsideFill InsideColorFill ColorStrokeBlack" data-item-index="1" data-renderer-id="0" transform="translate(51, 74)"><g id="edit_1hbbp881gh5nnn-stroke" fill="none" stroke-linecap="round" stroke-linejoin="round" stroke-miterlimit="4" stroke="#2c2c2c" stroke-width="2"><g><path d="M 49 33L 49 55C 49 56.104568 48.104568 57 47 57L 13 57C 11.895431 57 11 56.104568 11 55L 11 17C 11 15.895431 11.895431 15 13 15L 39 15M 35.648003 38.014L 25.75 42.254002L 29.992001 32.354L 51.348 11L 57.004002 16.656L 35.648003 38.014ZM 53.334 20.327999L 47.675999 14.67M 35.648003 38.014L 29.992001 32.354"></path></g></g></g><g id="g-root-brow_1lse5iw1ghgwln-stroke" data-item-order="0" data-item-id="brow_1lse5iw1ghgwln" data-item-class="Icon Stroke SceneTarget Indexed InsideFill InsideColorFill ColorStrokeBlack" data-item-index="3" data-renderer-id="0" transform="translate(243, 74)"><g id="brow_1lse5iw1ghgwln-stroke" fill="none" stroke-linecap="round" stroke-linejoin="round" stroke-miterlimit="4" stroke="#2c2c2c" stroke-width="2"><g><path d="M 41.5 34L 47.5 40L 41.5 46M 26.5 34L 20.5 40L 26.5 46M 37 34L 31 46M 15 16L 53 16C 53 16 57 16 57 20L 57 48C 57 48 57 52 53 52L 15 52C 15 52 11 52 11 48L 11 20C 11 20 11 16 15 16M 11 26L 57 26M 18 20.5C 18.276142 20.5 18.5 20.723858 18.5 21C 18.5 21.276142 18.276142 21.5 18 21.5C 17.723858 21.5 17.5 21.276142 17.5 21C 17.5 20.723858 17.723858 20.5 18 20.5M 24 20.5C 24.276142 20.5 24.5 20.723858 24.5 21C 24.5 21.276142 24.276142 21.5 24 21.5C 23.723858 21.5 23.5 21.276142 23.5 21C 23.5 20.723858 23.723858 20.5 24 20.5M 30 20.5C 30.276142 20.5 30.5 20.723858 30.5 21C 30.5 21.276142 30.276142 21.5 30 21.5C 29.723858 21.5 29.5 21.276142 29.5 21C 29.5 20.723858 29.723858 20.5 30 20.5"></path></g></g></g><g id="g-root-zip_v4unp41gh5mvg-stroke" data-item-order="0" data-item-id="zip_v4unp41gh5mvg" data-item-class="Icon Stroke SceneTarget Indexed InsideFill InsideColorFill ColorStrokeBlack" data-item-index="2" data-renderer-id="0" transform="translate(147, 194)"><g id="zip_v4unp41gh5mvg-stroke" fill="none" stroke-linecap="round" stroke-linejoin="round" stroke-miterlimit="4" stroke="#2c2c2c" stroke-width="2"><g><path d="M 45.5 35C 45.5 35.276142 45.276142 35.5 45 35.5C 44.723858 35.5 44.5 35.276142 44.5 35C 44.5 34.723858 44.723858 34.5 45 34.5C 45.276142 34.5 45.5 34.723858 45.5 35M 45.5 40C 45.5 40.276142 45.276142 40.5 45 40.5C 44.723858 40.5 44.5 40.276142 44.5 40C 44.5 39.723858 44.723858 39.5 45 39.5C 45.276142 39.5 45.5 39.723858 45.5 40M 45.5 45C 45.5 45.276142 45.276142 45.5 45 45.5C 44.723858 45.5 44.5 45.276142 44.5 45C 44.5 44.723858 44.723858 44.5 45 44.5C 45.276142 44.5 45.5 44.723858 45.5 45M 45.5 49.5C 45.5 49.776142 45.276142 50 45 50C 44.723858 50 44.5 49.776142 44.5 49.5C 44.5 49.223858 44.723858 49 45 49C 45.276142 49 45.5 49.223858 45.5 49.5M 33.48 20C 32.719688 20.005291 32.022133 19.579006 31.68 18.9L 29.780001 15.1C 29.441099 14.427441 28.753117 14.002283 28 14L 13 14C 11.895431 14 11 14.895431 11 16L 11 52C 11 53.104568 11.895431 54 13 54L 55 54C 56.104568 54 57 53.104568 57 52L 57 22C 57 20.895432 56.104568 20 55 20ZM 47 20L 48 27.219999C 48.102993 28.06073 47.840885 28.905302 47.280003 29.540001C 46.69305 30.177139 45.866283 30.539618 44.999996 30.539618C 44.133713 30.539618 43.306942 30.177139 42.719997 29.539999C 42.159119 28.905302 41.897011 28.06073 42 27.220001L 42.700001 20"></path></g></g></g><g id="g-root-acco_v6ns1gh5one-stroke" data-item-order="0" data-item-id="acco_v6ns1gh5one" data-item-class="Icon Stroke SceneTarget Indexed InsideFill InsideColorFill ColorStrokeBlack" data-item-index="4" data-renderer-id="0" transform="translate(339, 194)"><g id="acco_v6ns1gh5one-stroke" fill="none" stroke-linecap="round" stroke-linejoin="round" stroke-miterlimit="4" stroke="#2c2c2c" stroke-width="2"><g><path d="M 15 11L 53 11C 53 11 57 11 57 15L 57 53C 57 53 57 57 53 57L 15 57C 15 57 11 57 11 53L 11 15C 11 15 11 11 15 11M 11 21L 57 21M 38 27L 50 27C 50 27 51 27 51 28L 51 36C 51 36 51 37 50 37L 38 37C 38 37 37 37 37 36L 37 28C 37 28 37 27 38 27M 38 41L 50 41C 50 41 51 41 51 42L 51 50C 51 50 51 51 50 51L 38 51C 38 51 37 51 37 50L 37 42C 37 42 37 41 38 41M 18 27L 30 27C 30 27 31 27 31 28L 31 42C 31 42 31 43 30 43L 18 43C 18 43 17 43 17 42L 17 28C 17 28 17 27 18 27M 21 34C 21 35.656853 22.343147 37 24 37C 25.656855 37 27 35.656853 27 34C 27 32.343147 25.656855 31 24 31C 22.343147 31 21 32.343147 21 34M 19 43C 18.749329 39.970428 20.974888 37.299755 24 37C 27.025112 37.299755 29.250671 39.970428 29 43M 18 47L 26 47M 18 51L 26 51M 18 15.5C 18.276142 15.5 18.5 15.723858 18.5 16C 18.5 16.276142 18.276142 16.5 18 16.5C 17.723858 16.5 17.5 16.276142 17.5 16C 17.5 15.723858 17.723858 15.5 18 15.5M 24 15.5C 24.276142 15.5 24.5 15.723858 24.5 16C 24.5 16.276142 24.276142 16.5 24 16.5C 23.723858 16.5 23.5 16.276142 23.5 16C 23.5 15.723858 23.723858 15.5 24 15.5M 30 15.5C 30.276142 15.5 30.5 15.723858 30.5 16C 30.5 16.276142 30.276142 16.5 30 16.5C 29.723858 16.5 29.5 16.276142 29.5 16C 29.5 15.723858 29.723858 15.5 30 15.5"></path></g></g></g><g id="g-root-tx_markedit_4ly0o1ghpc75-stroke" data-item-order="0" data-item-id="tx_markedit_4ly0o1ghpc75" data-item-class="Label Stroke SceneTarget Indexed ColorStrokeBlack" data-item-index="2" data-renderer-id="0" transform="translate(99, 266)"></g><g id="g-root-tx_zenn_mb2zjs1ghpc7j-stroke" data-item-order="0" data-item-id="tx_zenn_mb2zjs1ghpc7j" data-item-class="Label Stroke SceneTarget Indexed ColorStrokeBlack" data-item-index="4" data-renderer-id="0" transform="translate(297, 266)"></g></g></g></svg>